name kinematics_mean_var
datacolumns 19
datarows 46
range 0.0000000000 0.5128200000
endheader
time	q_pelvis_tx_mean	q_pelvis_tx_var	q_pelvis_ty_mean	q_pelvis_ty_var	q_pelvis_tilt_mean	q_pelvis_tilt_var	hip_flexion_l_mean	hip_flexion_l_var	knee_angle_r_mean	knee_angle_r_var	ankle_angle_l_mean	ankle_angle_l_var	hip_flexion_r_mean	hip_flexion_r_var	knee_angle_l_mean	knee_angle_l_var	ankle_angle_r_mean	ankle_angle_r_var
0.0000000000	0.0000000000	0.0000000000	0.0000000000	0.0000000000	0.0000000000	0.0000000000	19.3300000000	31.8096000000	-3.9700000000	17.5561000000	0.0200000000	15.4449000000	-10.6100000000	68.0625000000	-13.8600000000	25.5025000000	7.2000000000	31.9225000000
0.0113960000	0.0000000000	0.0000000000	0.0000000000	0.0000000000	0.0000000000	0.0000000000	19.1250000000	32.6668500000	-5.4850000000	19.2662500000	-1.0200000000	17.2272500000	-10.7800000000	70.2413000000	-15.4150000000	26.3754500000	5.9450000000	34.6884500000
0.0227920000	0.0000000000	0.0000000000	0.0000000000	0.0000000000	0.0000000000	0.0000000000	18.9200000000	33.5241000000	-7.0000000000	20.9764000000	-2.0600000000	19.0096000000	-10.9500000000	72.4201000000	-16.9700000000	27.2484000000	4.6900000000	37.4544000000
0.0341880000	0.0000000000	0.0000000000	0.0000000000	0.0000000000	0.0000000000	0.0000000000	18.6850000000	33.4085000000	-8.7600000000	21.9602500000	-2.9700000000	18.8360000000	-10.9300000000	74.1421000000	-18.9650000000	28.6942500000	2.9200000000	40.2440000000
0.0455840000	0.0000000000	0.0000000000	0.0000000000	0.0000000000	0.0000000000	0.0000000000	18.4500000000	33.2929000000	-10.5200000000	22.9441000000	-3.8800000000	18.6624000000	-10.9100000000	75.8641000000	-20.9600000000	30.1401000000	1.1500000000	43.0336000000
0.0569800000	0.0000000000	0.0000000000	0.0000000000	0.0000000000	0.0000000000	0.0000000000	18.1950000000	32.5512500000	-12.3200000000	23.8722500000	-4.2400000000	17.4114000000	-10.6100000000	76.7401000000	-23.4800000000	32.2398500000	-1.0250000000	45.1152500000
0.0683760000	0.0000000000	0.0000000000	0.0000000000	0.0000000000	0.0000000000	0.0000000000	17.9400000000	31.8096000000	-14.1200000000	24.8004000000	-4.6000000000	16.1604000000	-10.3100000000	77.6161000000	-26.0000000000	34.3396000000	-3.2000000000	47.1969000000
0.0797720000	0.0000000000	0.0000000000	0.0000000000	0.0000000000	0.0000000000	0.0000000000	17.6200000000	31.3616000000	-15.7500000000	25.4562500000	-4.2900000000	15.8814500000	-9.6550000000	76.8272500000	-29.0150000000	36.3898000000	-5.6850000000	47.6109000000
0.0911680000	0.0000000000	0.0000000000	0.0000000000	0.0000000000	0.0000000000	0.0000000000	17.3000000000	30.9136000000	-17.3800000000	26.1121000000	-3.9800000000	15.6025000000	-9.0000000000	76.0384000000	-32.0300000000	38.4400000000	-8.1700000000	48.0249000000
0.1025640000	0.0000000000	0.0000000000	0.0000000000	0.0000000000	0.0000000000	0.0000000000	16.8500000000	31.3052500000	-18.6100000000	26.1632500000	-3.1900000000	16.0025000000	-7.9750000000	73.2152500000	-35.3850000000	39.0650000000	-10.6100000000	46.0572500000
0.1139600000	0.0000000000	0.0000000000	0.0000000000	0.0000000000	0.0000000000	0.0000000000	16.4000000000	31.6969000000	-19.8400000000	26.2144000000	-2.4000000000	16.4025000000	-6.9500000000	70.3921000000	-38.7400000000	39.6900000000	-13.0500000000	44.0896000000
0.1253560000	0.0000000000	0.0000000000	0.0000000000	0.0000000000	0.0000000000	0.0000000000	15.7900000000	32.7265000000	-20.5550000000	26.4716500000	-1.4250000000	16.2413000000	-5.6000000000	65.9288500000	-42.1700000000	38.1462500000	-15.0900000000	41.2028500000
0.1367520000	0.0000000000	0.0000000000	0.0000000000	0.0000000000	0.0000000000	0.0000000000	15.1800000000	33.7561000000	-21.2700000000	26.7289000000	-0.4500000000	16.0801000000	-4.2500000000	61.4656000000	-45.6000000000	36.6025000000	-17.1300000000	38.3161000000
0.1481480000	0.0000000000	0.0000000000	0.0000000000	0.0000000000	0.0000000000	0.0000000000	14.4250000000	34.5198500000	-21.4700000000	27.6222500000	0.5000000000	15.2981000000	-2.6500000000	56.4372500000	-48.8250000000	33.5917000000	-18.3250000000	36.6221000000
0.1595440000	0.0000000000	0.0000000000	0.0000000000	0.0000000000	0.0000000000	0.0000000000	13.6700000000	35.2836000000	-21.6700000000	28.5156000000	1.4500000000	14.5161000000	-1.0500000000	51.4089000000	-52.0500000000	30.5809000000	-19.5200000000	34.9281000000
0.1709400000	0.0000000000	0.0000000000	0.0000000000	0.0000000000	0.0000000000	0.0000000000	12.8200000000	35.0468000000	-21.4450000000	29.9938500000	2.2450000000	13.5948500000	0.6850000000	46.6349000000	-54.7950000000	27.7405000000	-19.6450000000	34.3421000000
0.1823360000	0.0000000000	0.0000000000	0.0000000000	0.0000000000	0.0000000000	0.0000000000	11.9700000000	34.8100000000	-21.2200000000	31.4721000000	3.0400000000	12.6736000000	2.4200000000	41.8609000000	-57.5400000000	24.9001000000	-19.7700000000	33.7561000000
0.1937320000	0.0000000000	0.0000000000	0.0000000000	0.0000000000	0.0000000000	0.0000000000	11.0900000000	33.8214500000	-20.7100000000	32.8473000000	3.6550000000	11.9816000000	4.1750000000	37.7504500000	-59.6000000000	23.7313000000	-18.9450000000	32.3905000000
0.2051280000	0.0000000000	0.0000000000	0.0000000000	0.0000000000	0.0000000000	0.0000000000	10.2100000000	32.8329000000	-20.2000000000	34.2225000000	4.2700000000	11.2896000000	5.9300000000	33.6400000000	-61.6600000000	22.5625000000	-18.1200000000	31.0249000000
0.2165240000	0.0000000000	0.0000000000	0.0000000000	0.0000000000	0.0000000000	0.0000000000	9.3450000000	31.9289000000	-19.5300000000	34.8125000000	4.7000000000	10.8936000000	7.5750000000	30.4442000000	-62.8900000000	23.4337000000	-16.7050000000	28.3142500000
0.2279200000	0.0000000000	0.0000000000	0.0000000000	0.0000000000	0.0000000000	0.0000000000	8.4800000000	31.0249000000	-18.8600000000	35.4025000000	5.1300000000	10.4976000000	9.2200000000	27.2484000000	-64.1200000000	24.3049000000	-15.2900000000	25.6036000000
0.2393160000	0.0000000000	0.0000000000	0.0000000000	0.0000000000	0.0000000000	0.0000000000	7.6100000000	30.4729000000	-18.1050000000	34.8125000000	5.4200000000	10.3368500000	10.6650000000	24.9054500000	-64.4900000000	26.7865000000	-13.6650000000	22.7030500000
0.2507120000	0.0000000000	0.0000000000	0.0000000000	0.0000000000	0.0000000000	0.0000000000	6.7400000000	29.9209000000	-17.3500000000	34.2225000000	5.7100000000	10.1761000000	12.1100000000	22.5625000000	-64.8600000000	29.2681000000	-12.0400000000	19.8025000000
0.2621080000	0.0000000000	0.0000000000	0.0000000000	0.0000000000	0.0000000000	0.0000000000	5.8400000000	29.4326500000	-16.5400000000	32.6237000000	5.9050000000	10.1442500000	13.3300000000	21.1380500000	-64.4050000000	32.5741000000	-10.4450000000	17.8613000000
0.2735040000	0.0000000000	0.0000000000	0.0000000000	0.0000000000	0.0000000000	0.0000000000	4.9400000000	28.9444000000	-15.7300000000	31.0249000000	6.1000000000	10.1124000000	14.5500000000	19.7136000000	-63.9500000000	35.8801000000	-8.8500000000	15.9201000000
0.2849000000	0.0000000000	0.0000000000	0.0000000000	0.0000000000	0.0000000000	0.0000000000	4.0350000000	28.8370000000	-14.9050000000	28.9286500000	6.2650000000	10.1124000000	15.5400000000	19.3180500000	-62.7700000000	39.1301000000	-7.4050000000	15.0288500000
0.2962960000	0.0000000000	0.0000000000	0.0000000000	0.0000000000	0.0000000000	0.0000000000	3.1300000000	28.7296000000	-14.0800000000	26.8324000000	6.4300000000	10.1124000000	16.5300000000	18.9225000000	-61.5900000000	42.3801000000	-5.9600000000	14.1376000000
0.3076920000	0.0000000000	0.0000000000	0.0000000000	0.0000000000	0.0000000000	0.0000000000	2.2750000000	29.5448500000	-13.2900000000	25.1290000000	6.5950000000	10.2082500000	17.3300000000	19.2737000000	-59.7800000000	45.2025000000	-4.7350000000	13.6572500000
0.3190880000	0.0000000000	0.0000000000	0.0000000000	0.0000000000	0.0000000000	0.0000000000	1.4200000000	30.3601000000	-12.5000000000	23.4256000000	6.7600000000	10.3041000000	18.1300000000	19.6249000000	-57.9700000000	48.0249000000	-3.5100000000	13.1769000000
0.3304840000	0.0000000000	0.0000000000	0.0000000000	0.0000000000	0.0000000000	0.0000000000	0.6450000000	31.7113000000	-11.7950000000	22.7108500000	6.9400000000	10.5970500000	18.7900000000	20.3465000000	-55.6200000000	50.0766500000	-2.5750000000	12.6785000000
0.3418800000	0.0000000000	0.0000000000	0.0000000000	0.0000000000	0.0000000000	0.0000000000	-0.1300000000	33.0625000000	-11.0900000000	21.9961000000	7.1200000000	10.8900000000	19.4500000000	21.0681000000	-53.2700000000	52.1284000000	-1.6400000000	12.1801000000
0.3532760000	0.0000000000	0.0000000000	0.0000000000	0.0000000000	0.0000000000	0.0000000000	-0.8350000000	34.2920500000	-10.5000000000	21.7628500000	7.3300000000	11.3618000000	19.9950000000	21.8628500000	-50.4250000000	53.5924000000	-1.0700000000	11.4365000000
0.3646720000	0.0000000000	0.0000000000	0.0000000000	0.0000000000	0.0000000000	0.0000000000	-1.5400000000	35.5216000000	-9.9100000000	21.5296000000	7.5400000000	11.8336000000	20.5400000000	22.6576000000	-47.5800000000	55.0564000000	-0.5000000000	10.6929000000
0.3760680000	0.0000000000	0.0000000000	0.0000000000	0.0000000000	0.0000000000	0.0000000000	-2.2050000000	36.6106000000	-9.4400000000	21.6226000000	7.7650000000	12.3968000000	20.9600000000	23.0416000000	-44.2600000000	56.0294500000	-0.2850000000	9.6682500000
0.3874640000	0.0000000000	0.0000000000	0.0000000000	0.0000000000	0.0000000000	0.0000000000	-2.8700000000	37.6996000000	-8.9700000000	21.7156000000	7.9900000000	12.9600000000	21.3800000000	23.4256000000	-40.9400000000	57.0025000000	-0.0700000000	8.6436000000
0.3988600000	0.0000000000	0.0000000000	0.0000000000	0.0000000000	0.0000000000	0.0000000000	-3.4950000000	38.9476000000	-8.6250000000	22.0916000000	8.2150000000	13.6620500000	21.6100000000	23.3772500000	-37.2000000000	56.9270500000	-0.1150000000	8.4253079375
0.4102560000	0.0000000000	0.0000000000	0.0000000000	0.0000000000	0.0000000000	0.0000000000	-4.1200000000	40.1956000000	-8.2800000000	22.4676000000	8.4400000000	14.3641000000	21.8400000000	23.3289000000	-33.4600000000	56.8516000000	-0.1600000000	8.2070158750
0.4216520000	0.0000000000	0.0000000000	0.0000000000	0.0000000000	0.0000000000	0.0000000000	-4.7100000000	41.7460000000	-8.0700000000	23.0436000000	8.6500000000	15.1820500000	21.8550000000	22.9457000000	-29.4200000000	54.9978500000	-0.2900000000	8.2070158750
0.4330480000	0.0000000000	0.0000000000	0.0000000000	0.0000000000	0.0000000000	0.0000000000	-5.3000000000	43.2964000000	-7.8600000000	23.6196000000	8.8600000000	16.0000000000	21.8700000000	22.5625000000	-25.3800000000	53.1441000000	-0.4200000000	8.2070158750
0.4444440000	0.0000000000	0.0000000000	0.0000000000	0.0000000000	0.0000000000	0.0000000000	-5.8500000000	45.1780000000	-7.7900000000	24.0610500000	9.0450000000	17.0312500000	21.6850000000	22.2324500000	-21.3250000000	48.9501000000	-0.4700000000	8.8775579375
0.4558400000	0.0000000000	0.0000000000	0.0000000000	0.0000000000	0.0000000000	0.0000000000	-6.4000000000	47.0596000000	-7.7200000000	24.5025000000	9.2300000000	18.0625000000	21.5000000000	21.9024000000	-17.2700000000	44.7561000000	-0.5200000000	9.5481000000
0.4672360000	0.0000000000	0.0000000000	0.0000000000	0.0000000000	0.0000000000	0.0000000000	-6.9150000000	49.0196000000	-7.8300000000	24.6514500000	9.3700000000	19.2013000000	21.1700000000	22.0904000000	-13.6050000000	38.7945000000	-0.3900000000	10.7253000000
0.4786320000	0.0000000000	0.0000000000	0.0000000000	0.0000000000	0.0000000000	0.0000000000	-7.4300000000	50.9796000000	-7.9400000000	24.8004000000	9.5100000000	20.3401000000	20.8400000000	22.2784000000	-9.9400000000	32.8329000000	-0.2600000000	11.9025000000
0.4900280000	0.0000000000	0.0000000000	0.0000000000	0.0000000000	0.0000000000	0.0000000000	-7.9100000000	52.8698000000	-8.2700000000	24.7506500000	9.5650000000	21.4513000000	20.4650000000	22.8520000000	-7.1250000000	26.7222500000	0.0500000000	12.1817000000
0.5014240000	0.0000000000	0.0000000000	0.0000000000	0.0000000000	0.0000000000	0.0000000000	-8.3900000000	54.7600000000	-8.6000000000	24.7009000000	9.6200000000	22.5625000000	20.0900000000	23.4256000000	-4.3100000000	20.6116000000	0.3600000000	12.4609000000
0.5128200000	0.0000000000	0.0000000000	0.0000000000	0.0000000000	0.0000000000	0.0000000000	-8.8300000000	56.8712000000	-9.1800000000	24.6512500000	9.5250000000	23.6814500000	19.7950000000	24.3130000000	-2.7150000000	16.6070500000	0.6800000000	12.0104500000
